<svg width="24" height="24" viewBox="0 0 24 24" fill="none" xmlns="http://www.w3.org/2000/svg">
<path d="M8.66667 2C4.98467 2 2 4.98467 2 8.66667V15.3333H4.66667V8.66667C4.66667 6.458 6.458 4.66667 8.66667 4.66667C10.8753 4.66667 12.6667 6.458 12.6667 8.66667V15.3333H15.3333V8.66667C15.3333 4.98467 12.3487 2 8.66667 2Z" fill="#AAB8C2"/>
<path d="M17.3333 21.3333C17.3333 22.806 16.1393 24 14.6667 24H2.66667C1.194 24 0 22.806 0 21.3333V13.3333C0 11.8606 1.194 10.6666 2.66667 10.6666H14.6667C16.1393 10.6666 17.3333 11.8606 17.3333 13.3333V21.3333Z" fill="#FFAC33"/>
<path d="M23.3334 6C23.3334 2.686 20.6474 0 17.3334 0C14.0194 0 11.3334 2.686 11.3334 6C11.3334 8.61133 13.0047 10.8267 15.3334 11.6513V22.3333C15.3334 23.254 16.0794 24 17 24C17.8087 24 18.482 23.424 18.6334 22.66C18.6454 22.6607 18.6547 22.6667 18.6667 22.6667C19.0354 22.6667 19.3334 22.3687 19.3334 22V21.3333C19.3334 20.9647 19.0354 20.6667 18.6667 20.6667V20C19.0354 20 19.3334 19.702 19.3334 19.3333V18C19.3334 17.6313 19.0354 17.3333 18.6667 17.3333V15.8153C19.064 15.584 19.3334 15.1593 19.3334 14.6667V11.6513C21.662 10.8273 23.3334 8.612 23.3334 6ZM17.3334 1.33333C18.0694 1.33333 18.6667 1.93067 18.6667 2.66667C18.6667 3.40267 18.0694 4 17.3334 4C16.5974 4 16 3.40267 16 2.66667C16 1.93067 16.5974 1.33333 17.3334 1.33333Z" fill="#C1694F"/>
</svg>
