<svg width="24" height="24" viewBox="0 0 24 24" fill="none" xmlns="http://www.w3.org/2000/svg">
<path d="M3.24443 6.07708C3.87183 5.63857 4.8176 5.72267 5.38092 6.18788L4.73483 5.24878C4.21489 4.50725 4.40111 3.70498 5.14331 3.18437C5.88551 2.66577 7.98863 4.06006 7.98863 4.06006C7.46402 3.31119 7.56213 2.36208 8.311 1.8368C9.05988 1.31352 10.0931 1.4944 10.6177 2.24461L17.5725 12.0694L16.6861 20.6628L9.28881 17.965L2.83662 8.39846C2.30733 7.64491 2.49021 6.6057 3.24443 6.07708Z" fill="#EF9645"/>
<path d="M1.79875 11.5428C1.79875 11.5428 1.0432 10.4415 2.14515 9.68666C3.24577 8.93178 4.00065 10.0324 4.00065 10.0324L7.50541 15.1437C7.62622 14.9421 7.75837 14.7432 7.90588 14.547L3.04153 7.45405C3.04153 7.45405 2.28665 6.35343 3.38794 5.59855C4.48856 4.84367 5.24344 5.94429 5.24344 5.94429L9.81877 12.6167C9.98897 12.4779 10.1632 12.3384 10.3427 12.2016L5.03853 4.46523C5.03853 4.46523 4.28365 3.36461 5.38493 2.60973C6.48555 1.85485 7.24043 2.95547 7.24043 2.95547L12.5446 10.6905C12.7395 10.571 12.9324 10.4676 13.126 10.3581L8.16818 3.12834C8.16818 3.12834 7.4133 2.02772 8.51392 1.27284C9.61454 0.517959 10.3694 1.61858 10.3694 1.61858L15.6115 9.2635L16.4085 10.4262C13.1059 12.6915 12.7916 16.9531 14.6784 19.705C15.0556 20.2557 15.6062 19.8785 15.6062 19.8785C13.3416 16.5754 14.033 12.8637 17.3362 10.5991L16.3624 5.72537C16.3624 5.72537 15.9987 4.4412 17.2821 4.07678C18.5663 3.71302 18.9307 4.99719 18.9307 4.99719L20.0554 8.33708C20.5012 9.66129 20.9758 10.9808 21.6039 12.229C23.3773 15.7531 22.318 20.1328 18.9741 22.4269C15.3265 24.9278 10.34 23.998 7.83846 20.3511L1.79875 11.5428Z" fill="#FFCD4C"/>
<path d="M8.00937 21.3583C5.33959 21.3583 2.64178 18.6605 2.64178 15.9907C2.64178 15.6216 2.37146 15.3232 2.00236 15.3232C1.63327 15.3232 1.30688 15.6216 1.30688 15.9907C1.30688 19.9954 4.0047 22.6932 8.00937 22.6932C8.37847 22.6932 8.67682 22.3668 8.67682 21.9977C8.67682 21.6286 8.37847 21.3583 8.00937 21.3583Z" fill="#5DADEC"/>
<path d="M4.67212 22.6651C2.66978 22.6651 1.33489 21.3302 1.33489 19.3279C1.33489 18.9588 1.03654 18.6605 0.667445 18.6605C0.298348 18.6605 0 18.9588 0 19.3279C0 21.9977 2.00234 24 4.67212 24C5.04121 24 5.33956 23.7017 5.33956 23.3326C5.33956 22.9635 5.04121 22.6651 4.67212 22.6651ZM16.0187 1.30688C15.6503 1.30688 15.3512 1.6059 15.3512 1.97433C15.3512 2.34276 15.6503 2.64178 16.0187 2.64178C18.6885 2.64178 21.3583 5.03724 21.3583 7.98134C21.3583 8.34977 21.6573 8.64878 22.0257 8.64878C22.3941 8.64878 22.6931 8.34977 22.6931 7.98134C22.6931 4.30104 20.0234 1.30688 16.0187 1.30688Z" fill="#5DADEC"/>
<path d="M19.3559 0C18.9875 0 18.6885 0.270983 18.6885 0.639413C18.6885 1.00784 18.9875 1.33489 19.3559 1.33489C21.3583 1.33489 22.6651 2.81996 22.6651 4.64408C22.6651 5.01251 22.9915 5.31153 23.3606 5.31153C23.7297 5.31153 24 5.01251 24 4.64408C24 2.0831 22.0257 0 19.3559 0Z" fill="#5DADEC"/>
</svg>
