<svg width="24" height="24" viewBox="0 0 24 24" fill="none" xmlns="http://www.w3.org/2000/svg">
<path d="M11.9999 24C11.9999 24 9.33325 24 9.33325 21.3333V2.66667C9.33325 2.66667 9.33325 0 11.9999 0H21.3333C21.3333 0 23.9999 0 23.9999 2.66667V21.3333C23.9999 21.3333 23.9999 24 21.3333 24H11.9999Z" fill="#31373D"/>
<path d="M10.6667 3.33337H22.6667V20.6667H10.6667V3.33337ZM8.66667 10.6667C8.66667 10.6667 9.33333 11.3334 9.33333 12C9.33333 12.6667 8.66667 13.3334 8.66667 13.3334L5.33333 16.6667C4.66667 17.3334 3.33333 17.3334 3.33333 16V14H1.33333C1.33333 14 0 14 0 12.6667V11.3334C0 10 1.33333 10 1.33333 10H3.33333V8.00004C3.33333 6.66671 4.66667 6.66671 5.33333 7.33337L8.66667 10.6667Z" fill="#55ACEE"/>
</svg>
