<svg width="24" height="24" viewBox="0 0 24 24" fill="none" xmlns="http://www.w3.org/2000/svg">
<g clip-path="url(#clip0_1_4879)">
<path fill-rule="evenodd" clip-rule="evenodd" d="M15.5633 5.92741H6.68209C6.36234 5.92741 6.10254 5.68249 6.07257 5.35491L5.88272 3.06897C5.85274 2.72199 5.60293 2.43727 5.2632 2.37502L2.88006 2.00866C2.84592 2.00347 2.81191 2.00064 2.77823 2.00004C2.40765 1.99348 2.07485 2.25775 2.01073 2.64035C1.94079 3.04856 2.22057 3.44656 2.62026 3.51799L4.12908 3.78332L5.04837 14.9079C5.15828 16.255 6.25742 17.2949 7.58639 17.2949H18.4879C19.7569 17.2949 20.8361 16.3468 21.0159 15.0599L21.9007 8.81996C21.4535 8.93739 20.9841 8.99992 20.5 8.99992C18.3338 8.99992 16.46 7.74758 15.5633 5.92741ZM14.1213 9.70228H16.8891C17.3088 9.70228 17.6386 10.039 17.6386 10.4677C17.6386 10.8861 17.3088 11.233 16.8891 11.233H14.1213C13.7016 11.233 13.3719 10.8861 13.3719 10.4677C13.3719 10.039 13.7016 9.70228 14.1213 9.70228Z" fill="white"/>
<path d="M8.93514 20.459C8.93514 19.6017 8.25567 18.9078 7.42631 18.9078C6.58697 18.9078 5.9075 19.6017 5.9075 20.459C5.9075 21.306 6.58697 21.9999 7.42631 21.9999C8.25567 21.9999 8.93514 21.306 8.93514 20.459Z" fill="white"/>
<path d="M20.1764 20.459C20.1764 19.6017 19.4969 18.9078 18.6676 18.9078C17.8282 18.9078 17.1487 19.6017 17.1487 20.459C17.1487 21.306 17.8282 21.9999 18.6676 21.9999C19.4969 21.9999 20.1764 21.306 20.1764 20.459Z" fill="white"/>
<path d="M24 3.49996C24 5.43296 22.433 6.99996 20.5 6.99996C18.567 6.99996 17 5.43296 17 3.49996C17 1.56696 18.567 -4.00543e-05 20.5 -4.00543e-05C22.433 -4.00543e-05 24 1.56696 24 3.49996Z" fill="#FF6666"/>
</g>
<defs>
<clipPath id="clip0_1_4879">
<rect width="24" height="24" fill="white"/>
</clipPath>
</defs>
</svg>
