<svg width="24" height="24" viewBox="0 0 24 24" fill="none" xmlns="http://www.w3.org/2000/svg">
<path d="M24 3.5C24 5.433 22.433 7 20.5 7C18.567 7 17 5.433 17 3.5C17 1.567 18.567 0 20.5 0C22.433 0 24 1.567 24 3.5Z" fill="#FF6666"/>
<path d="M15.0598 2.68603C14.1176 2.24232 13.0759 2 12.0452 2H11.9558C9.91935 2 7.86106 2.9417 6.577 4.51186C5.71333 5.58852 5.29392 6.68834 5.29392 8.3703V8.79633C5.29392 10.0523 4.98384 10.7925 4.23049 11.6456C3.6779 12.2741 3.5 13.0808 3.5 13.956C3.5 14.8302 3.78822 15.6601 4.36367 16.3339C5.11602 17.1417 6.17846 17.6573 7.26375 17.747C8.83505 17.9263 10.4063 17.9937 12.0005 17.9937C13.5937 17.9937 15.1659 17.8809 16.7372 17.747C17.8215 17.6573 18.884 17.1417 19.6373 16.3339C20.2128 15.6601 20.5 14.8302 20.5 13.956C20.5 13.0808 20.3231 12.2741 19.7695 11.6456C19.039 10.7925 18.7071 10.0523 18.7071 8.79633V8.70114C16.5498 7.95764 15 5.90981 15 3.5C15 3.22343 15.0204 2.95164 15.0598 2.68603Z" fill="white"/>
<path d="M14.0092 19.2279C13.5093 19.1222 10.4631 19.1222 9.96318 19.2279C9.53582 19.3266 9.07367 19.5573 9.07367 20.0608C9.09852 20.5402 9.37978 20.9653 9.76938 21.2342C10.2723 21.628 10.8636 21.8767 11.4828 21.9664C11.8128 22.0117 12.1487 22.0107 12.4906 21.9664C13.1088 21.8767 13.7001 21.628 14.204 21.2352C14.5926 20.9653 14.8738 20.5402 14.8987 20.0608C14.8987 19.5573 14.4366 19.3266 14.0092 19.2279Z" fill="white"/>
</svg>
