<svg width="24" height="24" viewBox="0 0 24 24" fill="none" xmlns="http://www.w3.org/2000/svg">
<path fill-rule="evenodd" clip-rule="evenodd" d="M19.84 18.193C19.84 21.489 15.32 21.87 11.921 21.87L11.6778 21.8698C9.5122 21.8646 4 21.7278 4 18.173C4 14.9443 8.33835 14.5128 11.7115 14.4965L12.1642 14.4962C14.3296 14.5015 19.84 14.6382 19.84 18.193ZM11.921 15.996C7.66 15.996 5.5 16.728 5.5 18.173C5.5 19.631 7.66 20.37 11.921 20.37C16.181 20.37 18.34 19.638 18.34 18.193C18.34 16.735 16.181 15.996 11.921 15.996ZM11.921 1.99963C14.849 1.99963 17.23 4.38163 17.23 7.30963C17.23 10.2376 14.849 12.6186 11.921 12.6186H11.889C8.967 12.6096 6.6 10.2266 6.60997 7.30663C6.60997 4.38163 8.992 1.99963 11.921 1.99963ZM11.921 3.42763C9.78 3.42763 8.03798 5.16863 8.03798 7.30963C8.031 9.44363 9.76 11.1836 11.892 11.1916L11.921 11.9056V11.1916C14.061 11.1916 15.802 9.44963 15.802 7.30963C15.802 5.16863 14.061 3.42763 11.921 3.42763Z" fill="#CACACA"/>
</svg>
