<svg width="16" height="16" viewBox="0 0 16 16" fill="none" xmlns="http://www.w3.org/2000/svg">
<path fill-rule="evenodd" clip-rule="evenodd" d="M7.82568 1.33334C11.4057 1.33334 14.3177 4.24534 14.3177 7.82534C14.3177 9.51437 13.6695 11.0549 12.6088 12.211L14.6959 14.2938C14.8913 14.4891 14.8919 14.8051 14.6966 15.0005C14.5993 15.0991 14.4706 15.1478 14.3426 15.1478C14.2153 15.1478 14.0873 15.0991 13.9893 15.0018L11.8769 12.8953C10.7657 13.7852 9.35679 14.318 7.82568 14.318C4.24567 14.318 1.33301 11.4053 1.33301 7.82534C1.33301 4.24534 4.24567 1.33334 7.82568 1.33334ZM7.82568 2.33334C4.79701 2.33334 2.33301 4.79667 2.33301 7.82534C2.33301 10.854 4.79701 13.318 7.82568 13.318C10.8537 13.318 13.3177 10.854 13.3177 7.82534C13.3177 4.79667 10.8537 2.33334 7.82568 2.33334Z" fill="#1D2D3A"/>
</svg>
