<svg width="24" height="21" viewBox="0 0 24 21" fill="none" xmlns="http://www.w3.org/2000/svg">
<path d="M12 0C5.37267 0 0 4.60533 0 10.2853C0 10.996 0.084 11.69 0.244667 12.36C1.43067 14.4007 2.25133 13.1127 6 11.238C9.818 9.32867 6 13.9047 4.66667 16.5713C4.25667 17.3913 4.47867 18.0853 5.04 18.654C7.004 19.8567 9.40267 20.5713 12 20.5713C18.6273 20.5713 24 15.9667 24 10.2853C24 4.60533 18.6273 0 12 0ZM13.8993 16.298C13.636 17.1953 12.2593 17.5807 10.824 17.1587C9.38867 16.7373 8.43867 15.6693 8.702 14.7713C8.96533 13.874 10.342 13.4887 11.7773 13.9113C13.2127 14.332 14.1627 15.4 13.8993 16.298Z" fill="#D99E82"/>
<path d="M6.66675 7.23804C7.77132 7.23804 8.66675 6.34261 8.66675 5.23804C8.66675 4.13347 7.77132 3.23804 6.66675 3.23804C5.56218 3.23804 4.66675 4.13347 4.66675 5.23804C4.66675 6.34261 5.56218 7.23804 6.66675 7.23804Z" fill="#5C913B"/>
<path d="M13.3333 5.90466C14.4378 5.90466 15.3333 5.00923 15.3333 3.90466C15.3333 2.80009 14.4378 1.90466 13.3333 1.90466C12.2287 1.90466 11.3333 2.80009 11.3333 3.90466C11.3333 5.00923 12.2287 5.90466 13.3333 5.90466Z" fill="#226699"/>
<path d="M19.3333 9.90466C20.4378 9.90466 21.3333 9.00923 21.3333 7.90466C21.3333 6.80009 20.4378 5.90466 19.3333 5.90466C18.2287 5.90466 17.3333 6.80009 17.3333 7.90466C17.3333 9.00923 18.2287 9.90466 19.3333 9.90466Z" fill="#DD2E44"/>
<path d="M18.6667 15.9047C19.7713 15.9047 20.6667 15.0092 20.6667 13.9047C20.6667 12.8001 19.7713 11.9047 18.6667 11.9047C17.5622 11.9047 16.6667 12.8001 16.6667 13.9047C16.6667 15.0092 17.5622 15.9047 18.6667 15.9047Z" fill="#FFCC4D"/>
</svg>
