<svg width="24" height="24" viewBox="0 0 24 24" fill="none" xmlns="http://www.w3.org/2000/svg">
<path d="M21.3333 5.33333H17.3333V2.66667C17.3333 1.194 16.1393 0 14.6667 0H9.33333C7.86067 0 6.66667 1.194 6.66667 2.66667V5.33333H2.66667C1.194 5.33333 0 6.52733 0 8V21.3333C0 22.806 1.194 24 2.66667 24H21.3333C22.806 24 24 22.806 24 21.3333V8C24 6.52733 22.806 5.33333 21.3333 5.33333ZM8 4C8 3.264 8.59733 2.66667 9.33333 2.66667H14.6667C15.4027 2.66667 16 3.264 16 4V5.33333H8V4Z" fill="#9A4E1C"/>
<path d="M24 13.3334C24 14.806 22.806 16 21.3333 16H2.66667C1.194 16 0 14.806 0 13.3334V8.00004C0 6.52737 1.194 5.33337 2.66667 5.33337H21.3333C22.806 5.33337 24 6.52737 24 8.00004V13.3334Z" fill="#662113"/>
<path d="M24 12C24 13.4727 22.806 14.6667 21.3333 14.6667H2.66667C1.194 14.6667 0 13.4727 0 12V8.00004C0 6.52737 1.194 5.33337 2.66667 5.33337H21.3333C22.806 5.33337 24 6.52737 24 8.00004V12Z" fill="#9A4E1C"/>
<path d="M14.6666 12C14.6666 12.736 14.0693 13.3333 13.3333 13.3333H10.6666C9.93059 13.3333 9.33325 12.736 9.33325 12C9.33325 11.264 9.93059 10.6666 10.6666 10.6666H13.3333C14.0693 10.6666 14.6666 11.264 14.6666 12Z" fill="#CCD6DD"/>
</svg>
