<svg width="24" height="24" viewBox="0 0 24 24" fill="none" xmlns="http://www.w3.org/2000/svg">
<path d="M24 14.6667C24 16.1393 22.806 17.3333 21.3333 17.3333H2.66667C1.194 17.3333 0 16.1393 0 14.6667V2.66667C0 1.194 1.194 0 2.66667 0H21.3333C22.806 0 24 1.194 24 2.66667V14.6667Z" fill="#CCD6DD"/>
<path d="M2.66675 2.66669H21.3334V14.6667H2.66675V2.66669Z" fill="#5DADEC"/>
<path d="M8.66675 17.3333H15.3334V21.3333H8.66675V17.3333Z" fill="#CCD6DD"/>
<path d="M8.66675 17.3333H15.3334V18.6666H8.66675V17.3333Z" fill="#9AAAB4"/>
<path d="M24 22C24 20.8953 23.1047 20 22 20H2C0.895333 20 0 20.8953 0 22C0 23.1047 0.895333 24 2 24H22C23.1047 24 24 23.1047 24 22Z" fill="#E1E8ED"/>
<path d="M2 21.3333H3.33333V22.6666H2V21.3333ZM4.66667 21.3333H6V22.6666H4.66667V21.3333ZM7.33333 21.3333H8.66667V22.6666H7.33333V21.3333ZM10 21.3333H11.3333V22.6666H10V21.3333ZM12.6667 21.3333H14V22.6666H12.6667V21.3333ZM15.3333 21.3333H16.6667V22.6666H15.3333V21.3333ZM18 21.3333H19.3333V22.6666H18V21.3333ZM20.6667 21.3333H22V22.6666H20.6667V21.3333Z" fill="#F5F8FA"/>
</svg>
