<svg width="24" height="24" viewBox="0 0 24 24" fill="none" xmlns="http://www.w3.org/2000/svg">
<path d="M11.3333 24C1.36133 24 0 14.6667 0 12H22.6667C22.6667 13.3333 21.3613 24 11.3333 24Z" fill="#CCD6DD"/>
<path d="M22.6667 11.3707C22.6667 14.848 17.5927 17.6667 11.3333 17.6667C5.074 17.6667 0 14.8473 0 11.3707C0 7.89333 5.074 5.74133 11.3333 5.74133C17.5927 5.74067 22.6667 7.89333 22.6667 11.3707Z" fill="#99AAB5"/>
<path d="M12.3335 22H10.6668C10.4828 22 10.3335 21.8507 10.3335 21.6667C10.3335 21.4827 10.4828 21.3334 10.6668 21.3334H12.0002V19.3334H9.3335V20H11.3335C11.5175 20 11.6668 20.1494 11.6668 20.3334C11.6668 20.5174 11.5175 20.6667 11.3335 20.6667H9.00016C8.81616 20.6667 8.66683 20.5174 8.66683 20.3334V19C8.66683 18.816 8.81616 18.6667 9.00016 18.6667H12.3335C12.5175 18.6667 12.6668 18.816 12.6668 19V21.6667C12.6668 21.8507 12.5175 22 12.3335 22ZM16.0002 21.3334C15.8682 21.3334 15.7428 21.254 15.6908 21.1234C15.6222 20.9527 15.7048 20.7587 15.8762 20.6907L17.3268 20.11L17.2835 18.6107L14.6668 19.2607V19.8934C15.1562 19.756 15.9722 19.5247 16.5722 19.3474C16.7468 19.2967 16.9342 19.3954 16.9862 19.5727C17.0382 19.7494 16.9375 19.9347 16.7608 19.9867C15.8422 20.258 14.4228 20.6547 14.4228 20.6547C14.3202 20.6827 14.2148 20.662 14.1308 20.5994C14.0488 20.536 14.0002 20.4374 14.0002 20.3334V19C14.0002 18.8474 14.1042 18.7134 14.2535 18.6767L17.5242 17.864C17.6202 17.84 17.7262 17.8614 17.8055 17.922C17.8862 17.9834 17.9342 18.0767 17.9375 18.178L18.0002 20.3234C18.0042 20.4634 17.9208 20.5907 17.7902 20.6427L16.1235 21.3094C16.0835 21.3254 16.0415 21.3334 16.0002 21.3334ZM19.0488 19.5254C18.9742 19.5254 18.9148 19.5054 18.8568 19.4734C18.7515 19.4147 18.6668 19.2667 18.6668 19.146V17.438C18.6668 17.3147 18.7355 17.202 18.8442 17.144C19.2375 16.9354 19.6968 16.66 20.0695 16.4374C20.3295 16.282 20.5482 16.1507 20.6768 16.082C20.7762 16.03 20.8962 16.0307 20.9942 16.084C21.0928 16.138 21.1575 16.238 21.1662 16.3507C21.1888 16.6427 21.0908 17.3807 21.0702 17.526C21.0562 17.628 20.9955 17.7187 20.9055 17.77L20.1035 18.2287C19.9448 18.3167 19.7402 18.2647 19.6482 18.1047C19.5568 17.9454 19.6122 17.7414 19.7722 17.6494L20.4302 17.2734C20.4422 17.18 20.4535 17.078 20.4648 16.9774L20.4115 17.0094C20.0848 17.2047 19.6928 17.44 19.3335 17.6374V18.7207C19.4488 18.658 19.6048 18.568 19.8162 18.436L20.0422 18.6887L20.1688 19.0027C19.5362 19.394 19.2408 19.5254 19.0488 19.5254ZM7.25016 21.5207C7.21616 21.5207 7.18216 21.5154 7.14883 21.5054L5.00283 20.818C4.8275 20.7614 4.73083 20.574 4.78683 20.3987C4.84283 20.2227 5.0315 20.1294 5.2055 20.1827L6.92883 20.7347L6.97216 19.164L5.06816 18.6067L5.05083 19.0967L6.1075 19.4547C6.2815 19.514 6.37483 19.7027 6.31616 19.8774C6.25683 20.052 6.06816 20.1434 5.8935 20.086L4.6015 19.6487C4.46216 19.6014 4.37016 19.468 4.3755 19.3214L4.41683 18.1547C4.42016 18.052 4.4715 17.956 4.55483 17.896C4.63816 17.8354 4.74416 17.8174 4.8435 17.8467L7.40616 18.5967C7.5515 18.6387 7.6495 18.7747 7.6455 18.9254L7.58283 21.196C7.58016 21.3007 7.5275 21.3987 7.44216 21.4594C7.38616 21.5 7.31816 21.5207 7.25016 21.5207ZM3.2295 19.6667C3.16883 19.6667 3.10883 19.6507 3.05483 19.6174L2.13816 19.0547C1.9815 18.958 1.93216 18.7534 2.02816 18.596C2.12416 18.4394 2.32883 18.3887 2.48683 18.4867L2.89216 18.7354L2.88683 17.6534L2.00016 17.1534V17.4367L2.4955 17.7354C2.65283 17.8307 2.7035 18.0347 2.60883 18.1927C2.5135 18.35 2.3095 18.4 2.15083 18.306L1.49483 17.91C1.39483 17.85 1.3335 17.7414 1.3335 17.6254V16.584C1.3335 16.4654 1.39616 16.356 1.49883 16.296C1.60083 16.236 1.7275 16.2347 1.83083 16.2934L3.38283 17.168C3.48683 17.2267 3.5515 17.3367 3.55216 17.4567L3.56283 19.3314C3.5635 19.4527 3.49816 19.5647 3.3935 19.6234C3.34216 19.6527 3.2855 19.6667 3.2295 19.6667Z" fill="#EA596E"/>
<path d="M11.3335 16.6667C16.8563 16.6667 21.3335 14.5774 21.3335 12C21.3335 9.42271 16.8563 7.33337 11.3335 7.33337C5.81065 7.33337 1.3335 9.42271 1.3335 12C1.3335 14.5774 5.81065 16.6667 11.3335 16.6667Z" fill="#FFAC33"/>
<path d="M13.9998 16C13.2132 16 12.5852 15.8693 12.1325 15.6107C11.6212 15.3187 11.3272 14.8487 11.3272 14.322C11.3278 13.0853 12.8878 12 14.6665 12C15.0352 12 15.3332 12.2987 15.3332 12.6667C15.3332 13.0353 15.0352 13.3333 14.6665 13.3333C13.4185 13.3333 12.6612 14.02 12.6612 14.322C12.6612 14.3727 12.7625 14.4347 12.7938 14.4527C12.9338 14.5327 13.2765 14.6667 13.9998 14.6667C15.6025 14.6667 17.3332 13.6473 17.3332 12C17.3332 11.5193 16.7065 11.2113 16.4378 11.1013C15.0912 10.5507 12.9105 10.7153 11.8085 11.8373C10.8478 12.8153 9.2805 13.1413 7.61517 12.7047C6.58984 12.4367 5.4025 11.8127 5.14517 10.864C5.0145 10.3807 5.1505 9.90667 5.5285 9.528C7.05717 8 9.91384 8 11.9998 8C12.3685 8 12.6665 8.29867 12.6665 8.66667C12.6665 9.03467 12.3685 9.33333 11.9998 9.33333C10.1472 9.33333 7.60917 9.33333 6.47117 10.4713C6.4365 10.5067 6.4285 10.5253 6.4285 10.526C6.44384 10.6307 6.80917 11.0353 7.63317 11.3187C8.6805 11.6793 10.0838 11.6913 10.8578 10.9033C12.4038 9.32933 15.1652 9.14067 16.9432 9.86733C18.0385 10.3153 18.6665 11.0927 18.6665 12C18.6665 14.4707 16.2438 16 13.9998 16ZM9.33317 16C4.26317 16 2.6665 12.3627 2.6665 11.3333C2.6665 10.9653 2.96517 10.6667 3.33317 10.6667C3.7005 10.6667 3.9985 10.9633 3.99984 11.33C4.02384 11.772 5.13384 14.6667 9.33317 14.6667C9.70117 14.6667 9.99984 14.9647 9.99984 15.3333C9.99984 15.702 9.70117 16 9.33317 16Z" fill="#FFD983"/>
<path d="M22.7282 2.03537L7.39154 2.62604C7.02487 2.6587 6.70087 2.3887 6.6682 2.02137C6.63554 1.6547 6.90554 1.3307 7.2722 1.29804L22.5495 0.0440363C22.9169 0.0107029 23.2402 0.28137 23.2735 0.648036C23.3055 1.01404 23.0955 2.00204 22.7282 2.03537ZM22.6669 5.33337L7.33354 4.6667C6.96554 4.6667 6.66687 4.36804 6.66687 4.00004C6.66687 3.63204 6.96554 3.33337 7.33354 3.33337H22.6669C23.0355 3.33337 23.3335 3.63204 23.3335 4.00004C23.3335 4.36804 23.0355 5.33337 22.6669 5.33337Z" fill="#AA695B"/>
<path d="M8.66667 10C8.29867 10 8 9.70133 8 9.33333V1.33333C8 0.965333 8.29867 0.666667 8.66667 0.666667C9.03467 0.666667 9.33333 0.965333 9.33333 1.33333V9.33333C9.33333 9.70133 9.03467 10 8.66667 10ZM11.3333 11.3333C10.9653 11.3333 10.6667 11.0347 10.6667 10.6667V0.666667C10.6667 0.298667 10.9653 0 11.3333 0C11.7013 0 12 0.298667 12 0.666667V10.6667C12 11.0347 11.7013 11.3333 11.3333 11.3333Z" fill="#FFD983"/>
</svg>
