<svg width="24" height="24" viewBox="0 0 24 24" fill="none" xmlns="http://www.w3.org/2000/svg">
<path d="M21.3771 21.8783C21.1802 21.9909 20.955 22.061 20.7116 22.061C19.9673 22.061 19.3632 21.457 19.3632 20.7127C19.3632 19.9684 19.9673 19.3643 20.7116 19.3643C21.4559 19.3643 22.06 19.9684 22.06 20.7127C22.06 20.9561 21.9899 21.1812 21.8773 21.3781L23.9983 23.4991L23.4084 18.6901L17.3407 13.9708L13.9697 17.3417L18.6891 23.4094L23.4987 24L21.3771 21.8783Z" fill="#99AAB5"/>
<path d="M9.01022 3.39135C9.78621 4.16734 9.78621 5.4247 9.01022 6.2007L6.20087 9.01072C5.42487 9.78604 4.16616 9.78604 3.39151 9.01072L0.581489 6.2007C-0.19383 5.4247 -0.19383 4.16734 0.581489 3.39135L3.39084 0.581995C4.16616 -0.193998 5.4242 -0.193998 6.20019 0.581995L9.01022 3.39135Z" fill="#66757F"/>
<path d="M17.7745 12.1565L6.17638 0.557739L0.55835 6.17712L12.1558 17.7745C12.9311 18.5499 14.1891 18.5499 14.9658 17.7745L17.7745 14.9645C18.5498 14.1892 18.5498 12.9318 17.7745 12.1565Z" fill="#31373D"/>
<path d="M5.35742 10.9773L10.9761 5.35797L12.4081 6.79063L6.79008 12.4093L5.35742 10.9773Z" fill="#66757F"/>
</svg>
