<svg width="24" height="17" viewBox="0 0 24 17" fill="none" xmlns="http://www.w3.org/2000/svg">
<path d="M1.37765 5.23242L1.37497 5.23108C1.37497 5.23108 0 13.5553 0 14.7553C0 15.9781 0.900335 16.969 2.01117 16.969C2.46704 16.969 2.88268 16.796 3.21989 16.5144L10.0351 10.5225L1.37765 5.23242ZM22.6223 5.23242L22.625 5.23108C22.625 5.23108 24 13.5553 24 14.7553C24 15.9781 23.0997 16.969 21.9888 16.969C21.533 16.969 21.1173 16.796 20.7801 16.5144L13.9649 10.5225L22.6223 5.23242Z" fill="#31373D"/>
<path d="M17.3639 11.3966C20.5109 11.3966 23.0622 8.84542 23.0622 5.69832C23.0622 2.55123 20.5109 0 17.3639 0C14.2168 0 11.6655 2.55123 11.6655 5.69832C11.6655 8.84542 14.2168 11.3966 17.3639 11.3966Z" fill="#14171A"/>
<path d="M6.63729 11.3966C9.78439 11.3966 12.3356 8.84542 12.3356 5.69832C12.3356 2.55123 9.78439 0 6.63729 0C3.49019 0 0.938965 2.55123 0.938965 5.69832C0.938965 8.84542 3.49019 11.3966 6.63729 11.3966Z" fill="#14171A"/>
<path d="M6.6377 0H17.364V11.3095H6.6377V0Z" fill="#14171A"/>
<path d="M8.71524 14.2458C10.5665 14.2458 12.0672 12.7451 12.0672 10.8938C12.0672 9.04259 10.5665 7.54187 8.71524 7.54187C6.864 7.54187 5.36328 9.04259 5.36328 10.8938C5.36328 12.7451 6.864 14.2458 8.71524 14.2458Z" fill="#14171A"/>
<path d="M15.2846 14.2458C17.1358 14.2458 18.6365 12.7451 18.6365 10.8938C18.6365 9.04259 17.1358 7.54187 15.2846 7.54187C13.4333 7.54187 11.9326 9.04259 11.9326 10.8938C11.9326 12.7451 13.4333 14.2458 15.2846 14.2458Z" fill="#14171A"/>
<path d="M15.2846 12.905C16.3954 12.905 17.2958 12.0046 17.2958 10.8939C17.2958 9.78312 16.3954 8.88269 15.2846 8.88269C14.1739 8.88269 13.2734 9.78312 13.2734 10.8939C13.2734 12.0046 14.1739 12.905 15.2846 12.905Z" fill="#67757F"/>
<path d="M8.71527 12.905C9.82602 12.905 10.7264 12.0046 10.7264 10.8939C10.7264 9.78312 9.82602 8.88269 8.71527 8.88269C7.60453 8.88269 6.7041 9.78312 6.7041 10.8939C6.7041 12.0046 7.60453 12.905 8.71527 12.905Z" fill="#67757F"/>
<path d="M17.2021 3.8112C17.7956 3.8112 18.2767 3.33007 18.2767 2.73656C18.2767 2.14306 17.7956 1.66193 17.2021 1.66193C16.6086 1.66193 16.1274 2.14306 16.1274 2.73656C16.1274 3.33007 16.6086 3.8112 17.2021 3.8112Z" fill="#FFCC4D"/>
<path d="M17.2021 8.15129C17.7956 8.15129 18.2767 7.67016 18.2767 7.07665C18.2767 6.48315 17.7956 6.00201 17.2021 6.00201C16.6086 6.00201 16.1274 6.48315 16.1274 7.07665C16.1274 7.67016 16.6086 8.15129 17.2021 8.15129Z" fill="#77B255"/>
<path d="M15.0322 5.98124C15.6257 5.98124 16.1068 5.50011 16.1068 4.90661C16.1068 4.3131 15.6257 3.83197 15.0322 3.83197C14.4387 3.83197 13.9575 4.3131 13.9575 4.90661C13.9575 5.50011 14.4387 5.98124 15.0322 5.98124Z" fill="#50A5E6"/>
<path d="M19.3725 5.98124C19.966 5.98124 20.4471 5.50011 20.4471 4.90661C20.4471 4.3131 19.966 3.83197 19.3725 3.83197C18.779 3.83197 18.2979 4.3131 18.2979 4.90661C18.2979 5.50011 18.779 5.98124 19.3725 5.98124Z" fill="#DD2E44"/>
<path d="M7.4229 3.66232V2.20891C7.4229 2.02187 7.27139 1.87036 7.08435 1.87036H6.03989C5.85285 1.87036 5.70134 2.02187 5.70134 2.20891V3.66232L6.56212 4.52377L7.4229 3.66232ZM5.70067 6.09584V7.54924C5.70067 7.73628 5.85218 7.88779 6.03921 7.88779H7.08368C7.27072 7.88779 7.42223 7.73628 7.42223 7.54924V6.09584L6.56145 5.23438L5.70067 6.09584ZM9.23296 4.01762H7.77955L6.9181 4.87908L7.77955 5.74053H9.23296C9.42 5.74053 9.57151 5.58835 9.57151 5.40198V4.35684C9.57151 4.1698 9.42 4.01762 9.23296 4.01762ZM5.34536 4.01762H3.89128C3.70424 4.01762 3.55273 4.1698 3.55273 4.35617V5.40064C3.55273 5.58768 3.70424 5.73919 3.89128 5.73919H5.34469L6.20614 4.87774L5.34536 4.01762Z" fill="#8899A6"/>
</svg>
