<svg width="15" height="24" viewBox="0 0 15 24" fill="none" xmlns="http://www.w3.org/2000/svg">
<path d="M12.4602 23.5658C12.4568 23.543 12.4233 23.4224 12.4233 23.4224L12.3851 23.4405L12.3878 23.3507C12.3737 22.962 11.9804 23.0089 11.9335 23.0049C11.8866 23.0009 11.7291 23.0089 11.5341 22.9841C11.3398 22.9593 11.1522 22.9118 10.9873 22.8119C10.795 22.6953 10.533 22.499 10.3078 22.3677C10.0827 22.2363 9.79992 22.0748 9.79992 22.0748C9.79992 22.0748 9.55399 22.5318 9.04473 22.5131C8.77066 22.503 8.34113 22.2872 8.28551 22.2718C8.21181 22.2511 8.17897 22.2926 8.14815 22.3496C8.11732 22.4072 8.00676 22.8079 8.00676 23.023C8.00676 23.1597 8.02351 23.2461 8.03624 23.2944L7.99939 23.283C7.98263 23.2783 7.96655 23.291 7.96655 23.3091V23.7695C7.96655 23.7996 7.99135 23.868 8.07042 23.8841C8.14949 23.9002 9.2491 23.9946 9.29065 23.9578C9.33219 23.9209 9.37776 23.8023 9.41328 23.7856C9.44879 23.7695 9.81734 23.8486 9.98888 23.8894C10.1604 23.9303 10.4566 24 10.805 24C11.1535 24 11.6031 23.8975 11.8819 23.8278C12.16 23.7581 12.3784 23.665 12.428 23.6341C12.4776 23.6033 12.4635 23.5892 12.4602 23.5658Z" fill="#292F33"/>
<path d="M9.13191 23.6629L8.85718 23.4706C8.86254 23.4619 9.41268 22.702 10.4915 23.0243C10.5532 22.9399 10.6456 22.8072 10.7348 22.6598L11.0216 22.834C10.8607 23.0994 10.6926 23.3151 10.6859 23.3238L10.6115 23.419L10.4976 23.3781C9.5735 23.0491 9.1366 23.6562 9.13191 23.6629Z" fill="#4B545D"/>
<path d="M4.49362 23.5658C4.49027 23.543 4.45676 23.4224 4.45676 23.4224L4.41857 23.4405L4.42125 23.3507C4.40718 22.962 4.01383 23.0089 3.96693 23.0049C3.92002 23.0009 3.76255 23.0089 3.56755 22.9841C3.37256 22.9593 3.1856 22.9118 3.02076 22.8119C2.82845 22.6953 2.56644 22.499 2.34129 22.3677C2.11614 22.2363 1.83336 22.0748 1.83336 22.0748C1.83336 22.0748 1.58744 22.5318 1.07817 22.5131C0.804107 22.503 0.37458 22.2872 0.318963 22.2718C0.245253 22.2511 0.212418 22.2926 0.181594 22.3496C0.15077 22.4072 0.0402056 22.8079 0.0402056 23.023C0.0402056 23.1597 0.0569576 23.2461 0.0696893 23.2944L0.0328345 23.283C0.0160823 23.2783 0 23.291 0 23.3091V23.7695C0 23.7996 0.0247934 23.868 0.103864 23.8841C0.182934 23.9002 1.28255 23.9946 1.3241 23.9578C1.36564 23.9209 1.41121 23.8023 1.44672 23.7856C1.48224 23.7695 1.85079 23.8486 2.02233 23.8894C2.19387 23.9303 2.49005 24 2.8385 24C3.18694 24 3.63657 23.8975 3.91533 23.8278C4.19342 23.7581 4.41187 23.665 4.46145 23.6341C4.51037 23.6033 4.49697 23.5892 4.49362 23.5658Z" fill="#292F33"/>
<path d="M1.16469 23.6636L0.890625 23.4706C0.895986 23.4626 1.44211 22.7007 2.52497 23.0243C2.58595 22.9399 2.67909 22.8072 2.76821 22.6598L3.05501 22.834C2.89419 23.0994 2.726 23.3151 2.7193 23.3238L2.64492 23.419L2.531 23.3781C1.61566 23.0511 1.18278 23.6381 1.16469 23.6636Z" fill="#4B545D"/>
<path d="M14.136 1.1553C14.0087 1.09566 13.9491 1.22365 13.9491 1.22365L13.6958 1.76776C13.7005 1.75838 13.6401 1.72019 13.6442 1.71282L14.0194 0.908039C14.0194 0.908039 14.0791 0.780722 13.9511 0.721084C13.8231 0.661446 13.7641 0.789433 13.7641 0.789433L13.7279 0.866493L13.4116 1.54529C13.4123 1.54328 13.3493 1.51246 13.35 1.51112L13.7668 0.61588C13.7668 0.61588 13.8264 0.488563 13.6984 0.428925C13.5711 0.369287 13.5115 0.497274 13.5115 0.497274L13.0947 1.39251C13.094 1.39385 13.0297 1.36638 13.0284 1.36839L13.3735 0.627271C13.3735 0.627271 13.4331 0.499954 13.3051 0.440316C13.1778 0.380679 13.1181 0.508666 13.1181 0.508666L12.6477 1.51849C12.6156 1.58751 12.5546 1.58885 12.5278 1.57076C12.4568 1.52251 12.4943 1.39653 12.4749 1.28664C12.4447 1.11912 12.3435 1.00855 12.237 1.00654C12.119 1.00453 12.0989 1.09901 12.1083 1.13185C12.1271 1.19551 12.1572 1.30205 12.1928 1.47091C12.2175 1.58952 12.1814 1.68802 12.1814 1.68802C12.166 1.73627 12.1244 1.90111 12.1559 2.09276C12.1747 2.206 12.2176 2.32863 12.2933 2.4412L12.0708 2.91965L13.0806 3.36123L13.3259 2.72063C13.5048 2.64089 13.6609 2.50687 13.75 2.3159L13.7795 2.25224L14.2024 1.34427C14.2044 1.34159 14.2633 1.21427 14.136 1.1553Z" fill="#FFCD4C"/>
<path d="M12.5881 1.57549C12.6149 1.56745 12.6283 1.55136 12.6384 1.53662C12.7509 1.60899 12.899 1.71889 12.9674 1.90048C13.0558 2.13568 13.0036 2.32063 12.9486 2.43521C12.9044 2.52768 12.8334 2.54779 12.8823 2.40372C12.9439 2.22279 12.9781 1.82342 12.5774 1.59626L12.5405 1.57616C12.5412 1.57616 12.5653 1.58219 12.5881 1.57549Z" fill="#EF9645"/>
<path d="M2.56978 13.5902C2.51885 13.5473 2.43442 13.4756 2.31179 13.3543C2.22535 13.2685 2.20123 13.1673 2.20123 13.1673C2.18715 13.1184 2.13087 12.9583 1.99819 12.8162C1.91979 12.7318 1.81659 12.6534 1.69062 12.6024L1.61289 12.0804L0.527344 12.2707L0.677444 12.9402C0.57291 13.1057 0.516622 13.3034 0.548117 13.5124L0.558838 13.5821L0.708938 14.5725C0.708938 14.5725 0.729711 14.7112 0.869089 14.6904C1.00847 14.6697 0.987025 14.5303 0.987025 14.5303L0.896563 13.9366C0.897903 13.9466 0.968933 13.9453 0.970273 13.954L1.10295 14.8318C1.10295 14.8318 1.12372 14.9705 1.2631 14.9498C1.40181 14.929 1.38104 14.7896 1.38104 14.7896L1.36831 14.7052L1.2564 13.9647C1.2564 13.9667 1.32609 13.958 1.32676 13.9587L1.47485 14.935C1.47485 14.935 1.49562 15.0737 1.635 15.053C1.77371 15.0322 1.75294 14.8928 1.75294 14.8928L1.60552 13.9165C1.60552 13.9151 1.67454 13.9024 1.67387 13.9004L1.79582 14.7085C1.79582 14.7085 1.81659 14.8472 1.95597 14.8265C2.09468 14.8057 2.07391 14.6663 2.07391 14.6663L1.90706 13.5647C1.89567 13.4896 1.94525 13.4541 1.97809 13.4548C2.06386 13.4555 2.10205 13.5814 2.17911 13.6619C2.29705 13.7845 2.44246 13.8207 2.53225 13.7637C2.63142 13.7021 2.59591 13.6116 2.56978 13.5902Z" fill="#FFCD4C"/>
<path d="M12.2304 2.43719C12.2304 2.43719 10.8507 5.33265 10.6878 5.42646C10.5411 5.51089 9.53595 5.39832 8.20918 5.66367C6.88307 5.92903 6.37045 5.55981 5.01352 5.61342C4.2255 5.64424 3.3966 5.9163 2.85115 6.04763C2.02225 6.24799 0.655933 8.21671 0.272642 8.90221C-0.0242069 9.43225 -0.00946474 10.028 0.0535236 10.4917C0.105791 10.879 0.0923886 11.4874 0.602996 12.7767L1.75488 12.5884C1.75488 12.5884 1.56122 10.0534 1.72607 9.77936C1.79441 9.66611 2.61259 8.35944 3.26928 8.12223L8.75597 7.86425C8.75597 7.86425 11.0175 7.53925 11.6387 7.08225C12.1131 6.73314 13.3119 2.89353 13.3119 2.89353L12.2304 2.43719Z" fill="#292F33"/>
<path d="M5.3501 3.86318C5.46736 3.74792 5.62283 3.66952 5.79973 3.65277C6.21049 3.60988 6.57703 3.90941 6.61858 4.32085L6.83234 6.43364C6.87321 6.84306 6.57502 7.21094 6.16426 7.25182C5.75215 7.29403 5.38628 6.9945 5.34541 6.58374L5.13098 4.47095C5.10753 4.23642 5.19464 4.01797 5.3501 3.86318Z" fill="#FFCD4C"/>
<path d="M7.82736 2.81713C7.82736 4.05612 6.95021 5.06059 5.86601 5.06059C4.78181 5.06059 3.90332 4.05612 3.90332 2.81713C3.90332 1.5788 4.78181 0.574341 5.86601 0.574341C6.95021 0.574341 7.82736 1.5788 7.82736 2.81713Z" fill="#FFCD4C"/>
<path d="M6.92071 1.29068C6.92071 1.29068 6.15681 2.00768 5.34667 2.13165C5.34667 2.13165 4.8622 2.91632 4.83205 3.3693C4.83205 3.3693 4.53051 2.64493 4.28927 2.76622C4.04804 2.88684 3.95691 3.33915 4.16866 3.64069C4.37974 3.9429 4.64107 4.46222 4.4119 4.31279C3.95021 4.01125 3.88253 3.79816 3.75789 3.59579C3.67279 3.45775 3.47311 2.9639 3.4463 2.14706C3.43022 1.66392 3.60176 0.72915 4.59014 0.232614C5.44652 -0.198923 6.79273 0.0215363 7.42529 0.473176C8.05852 0.926156 8.21599 2.06799 7.82332 2.52097C7.82332 2.52097 7.76637 2.09881 7.49632 1.75707C7.34488 1.56743 6.92071 1.29068 6.92071 1.29068Z" fill="#FFAC33"/>
<path d="M3.24634 6.28687V12.4872L7.99258 12.4711C7.99258 12.4711 8.41138 10.6599 8.68545 9.42289C9.00307 7.99225 7.96242 5.80977 7.96242 5.80977L7.23739 5.7374L7.09533 5.05994L6.38771 5.32797L6.28653 6.5013L5.98097 5.38493L4.94367 5.29447L4.82038 6.00945L3.24634 6.28687Z" fill="#DD2E44"/>
<path d="M2.82743 6.36661C2.82743 6.36661 3.28845 8.00364 3.08542 11.3923C4.57838 11.3668 5.74098 10.9018 5.74098 10.9018C5.74098 10.9018 5.83881 9.61587 5.5882 8.4794C5.22233 6.82495 4.84775 5.85198 4.84775 5.85198L2.82743 6.36661ZM7.19373 5.53168C7.19373 5.53168 7.6112 7.72354 7.51806 9.03222C7.42424 10.3409 7.36058 10.8374 7.36058 10.8374C7.36058 10.8374 7.65609 11.1631 8.41262 11.1497C8.72556 10.3309 8.91653 8.68445 8.87834 7.67663C8.8388 6.61454 8.20691 5.58126 8.20691 5.58126L7.19373 5.53168ZM3.24691 12.4872C3.24691 12.4872 2.84016 17.1745 2.58888 18.0536C2.36507 18.8363 0.0432129 22.5714 0.0432129 22.5714C0.0432129 22.5714 1.14618 22.8434 2.20693 22.6344C2.20693 22.6344 4.32642 20.0639 4.88059 18.8229C5.04141 18.4617 6.1102 15.1233 6.1102 15.1233C6.1102 15.1233 7.25739 16.4019 8.02866 17.535C8.51649 18.8772 8.08897 22.5218 8.08897 22.5218C8.08897 22.5218 9.08271 22.7309 10.0316 22.5499C10.0316 22.5499 10.6072 18.9335 10.4678 17.3983C10.4457 17.1524 10.3988 16.6947 10.3036 16.5211C9.88883 15.7686 8.98823 14.3561 8.41262 13.7255C7.89398 13.158 7.99382 12.4704 7.99382 12.4704L3.24691 12.4872Z" fill="#292F33"/>
</svg>
