<svg width="24" height="24" viewBox="0 0 24 24" fill="none" xmlns="http://www.w3.org/2000/svg">
<path d="M9.45467 0.0112493L5.212 0.878583C4.912 0.939916 4.66667 1.24058 4.66667 1.54658V12.1179C4.258 11.9792 3.808 11.8992 3.33333 11.8992C1.492 11.8992 0 13.0599 0 14.4919C0 15.9232 1.492 17.0846 3.33333 17.0846C5.142 17.0846 6.60533 15.9626 6.65667 14.5666H6.66667V4.21725L9.45467 3.64725C9.75467 3.58592 10 3.28525 10 2.97925V0.455916C10 0.149916 9.75467 -0.0507507 9.45467 0.0112493ZM23.4547 2.67792L19.2127 3.54525C18.912 3.60658 18.6667 3.90725 18.6667 4.21325V14.7846C18.258 14.6452 17.808 14.5659 17.3333 14.5659C15.492 14.5659 14 15.7266 14 17.1586C14 18.5899 15.492 19.7512 17.3333 19.7512C19.142 19.7512 20.6053 18.6292 20.6567 17.2332H20.6667V6.88392L23.4547 6.31392C23.7547 6.25258 24 5.95192 24 5.64592V3.12258C24 2.81658 23.7547 2.61592 23.4547 2.67792Z" fill="#5DADEC"/>
<path d="M15.4547 6.67723L11.2127 7.54457C10.912 7.60657 10.6667 7.90723 10.6667 8.21323V18.7846C10.258 18.6452 9.808 18.5659 9.33333 18.5659C7.492 18.5659 6 19.7266 6 21.1586C6 22.5906 7.492 23.7512 9.33333 23.7512C11.142 23.7512 12.6053 22.6292 12.6567 21.2332H12.6667V10.8839L15.4547 10.3139C15.7547 10.2526 16 9.9519 16 9.6459V7.12257C16 6.81657 15.7547 6.6159 15.4547 6.67723Z" fill="#5DADEC"/>
</svg>
