<svg width="24" height="24" viewBox="0 0 24 24" fill="none" xmlns="http://www.w3.org/2000/svg">
<path d="M12 24C18.6274 24 24 18.6274 24 12C24 5.37258 18.6274 0 12 0C5.37258 0 0 5.37258 0 12C0 18.6274 5.37258 24 12 24Z" fill="#F5F8FA"/>
<path d="M11.9997 7.33333C11.6317 7.33333 11.333 7.03466 11.333 6.66666V1.99999C11.333 1.63199 11.6317 1.33333 11.9997 1.33333C12.3677 1.33333 12.6664 1.63199 12.6664 1.99999V6.66666C12.6664 7.03466 12.3677 7.33333 11.9997 7.33333ZM7.61104 10.3333C7.54438 10.3333 7.47638 10.3233 7.40971 10.302L2.04904 8.60733C1.69771 8.49599 1.50304 8.12199 1.61438 7.77066C1.72504 7.41933 2.10104 7.22533 2.45104 7.33599L7.81238 9.03066C8.16371 9.14199 8.35838 9.51666 8.24704 9.86733C8.15638 10.1513 7.89371 10.3333 7.61104 10.3333ZM16.6944 10.1393C16.405 10.1393 16.139 9.94933 16.0544 9.658C15.9517 9.304 16.155 8.93466 16.509 8.83199L21.009 7.52666C21.363 7.42466 21.7324 7.62866 21.8344 7.98133C21.937 8.33533 21.7337 8.70466 21.3797 8.80733L16.8797 10.1127C16.8184 10.1307 16.7557 10.1393 16.6944 10.1393ZM18.0284 20.1113C17.8244 20.1113 17.6244 20.018 17.493 19.8427L13.8537 14.954C13.6337 14.6593 13.695 14.2413 13.9904 14.0213C14.285 13.8007 14.703 13.8627 14.923 14.158L18.5624 19.0467C18.7824 19.3413 18.721 19.7593 18.4257 19.9793C18.3064 20.0687 18.1664 20.1113 18.0284 20.1113ZM5.83238 20.056C5.70104 20.056 5.56904 20.0173 5.45238 19.9367C5.14971 19.726 5.07571 19.3113 5.28571 19.0087L8.70238 14.092C8.91238 13.7893 9.32771 13.7147 9.63038 13.9247C9.93304 14.1347 10.007 14.5507 9.79704 14.8527L6.38038 19.7693C6.25104 19.9567 6.04304 20.056 5.83238 20.056ZM2.33304 18.0413C2.03971 18.0413 1.77038 17.846 1.68971 17.5493L0.231044 12.1747C0.134378 11.8193 0.344378 11.4533 0.700378 11.3567C1.05704 11.2627 1.42238 11.4707 1.51838 11.826L2.97704 17.2007C3.07371 17.556 2.86371 17.922 2.50771 18.018C2.44904 18.0347 2.39038 18.0413 2.33304 18.0413ZM14.6664 22.6667H8.66638C8.29838 22.6667 7.99971 22.3687 7.99971 22C7.99971 21.6313 8.29838 21.3333 8.66638 21.3333H14.6664C15.035 21.3333 15.333 21.6313 15.333 22C15.333 22.3687 15.035 22.6667 14.6664 22.6667ZM21.417 18.0833C21.3644 18.0833 21.3104 18.0773 21.257 18.064C20.8997 17.976 20.681 17.6147 20.7697 17.2573L22.1864 11.5073C22.275 11.15 22.639 10.9327 22.993 11.0193C23.3504 11.1073 23.569 11.4687 23.4804 11.8267L22.0637 17.5767C21.9884 17.88 21.7164 18.0833 21.417 18.0833ZM20.2077 5.12533C20.0944 5.12533 19.9797 5.09666 19.8744 5.03599L14.833 2.11933C14.5144 1.93466 14.405 1.52733 14.5904 1.20799C14.7737 0.889328 15.181 0.779328 15.501 0.964661L20.5424 3.88133C20.861 4.06599 20.9704 4.47333 20.785 4.79266C20.6617 5.00599 20.4377 5.12533 20.2077 5.12533ZM3.66704 5.12533C3.45904 5.12533 3.25504 5.02866 3.12504 4.84733C2.91038 4.54733 2.97838 4.13133 3.27771 3.91666L7.40304 0.957995C7.70238 0.743328 8.11904 0.811994 8.33371 1.11066C8.54838 1.40999 8.47971 1.82666 8.18104 2.04133L4.05504 4.99999C3.93704 5.08399 3.80171 5.12533 3.66704 5.12533Z" fill="#CCD6DD"/>
<path d="M16.9953 9.01067L12.19 5.622C11.958 5.45867 11.6473 5.46 11.416 5.626L6.638 9.07067C6.40933 9.236 6.30867 9.52667 6.388 9.798L8.05467 15.52C8.13733 15.804 8.398 16 8.69467 16H14.6667C14.9533 16 15.2067 15.8173 15.2987 15.546L17.2433 9.768C17.3373 9.48867 17.236 9.18067 16.9953 9.01067ZM0.861333 13.028C0.9 13.028 0.939333 13.0247 0.978 13.0173C1.174 12.9827 1.34467 12.862 1.44267 12.688L3.69267 8.688C3.72667 8.62733 3.75067 8.56267 3.76467 8.494L4.65333 4.13333C4.69333 3.93733 4.64267 3.73333 4.516 3.57867C4.38933 3.42333 4.2 3.33333 4 3.33333H3.71467C1.43 5.518 0 8.58933 0 12C0 12.1773 0.0186667 12.35 0.0266667 12.5253L0.428 12.868C0.549333 12.972 0.703333 13.028 0.861333 13.028ZM7.078 1.99667C7.14867 2.14267 7.28667 2.24533 7.44667 2.27133L11.6967 2.966C11.7233 2.97 11.7507 2.97267 11.7773 2.97267C11.804 2.97267 11.8313 2.97067 11.8587 2.966L15.9147 2.29933C16.048 2.27733 16.168 2.202 16.2447 2.09C16.322 1.978 16.35 1.84 16.3233 1.70667L16.1287 0.744667C14.84 0.271333 13.4533 0 12 0C10.3833 0 8.844 0.324 7.43667 0.904L7.08933 1.53733C7.01133 1.67933 7.00733 1.85067 7.078 1.99667ZM20.756 3.81267L19.7533 3.74933C19.6013 3.74067 19.45 3.8 19.3473 3.91533C19.246 4.03067 19.202 4.18333 19.2307 4.33533L20.0087 8.46733C20.02 8.52467 20.0407 8.566 20.0707 8.61667C21.0653 10.286 22.172 12.1507 22.3247 12.4713C22.3407 12.5273 22.366 12.524 22.4007 12.572C22.494 12.702 22.6487 12.6667 22.8087 12.6667H22.8133C22.9453 12.6667 23.0287 12.7293 23.992 12.1647C23.9927 12.1093 24 12.0553 24 12C24 8.83133 22.7627 5.95733 20.756 3.81267ZM9.694 22.2507C9.70133 22.118 9.65533 21.9873 9.56667 21.888L6.56667 18.5547C6.52667 18.5107 6.47933 18.4733 6.426 18.446C2.50267 16.4 2.43 16.376 2.382 16.3593C2.33 16.3427 2.27467 16.3333 2.22067 16.3333C1.86267 16.3333 1.75733 16.3767 1.43067 17.6827C2.92133 20.4487 5.466 22.56 8.52667 23.4847L9.52667 22.596C9.626 22.508 9.686 22.3833 9.694 22.2507ZM21.5827 16.5393C21.4567 16.486 21.3127 16.4873 21.188 16.5427L17.1327 18.3207C17.062 18.3513 16.9993 18.398 16.95 18.4573L14.1167 21.846C14.0307 21.9487 13.99 22.0807 14.002 22.214C14.0153 22.3473 14.08 22.47 14.1833 22.554C14.6387 22.9267 15.024 23.2407 15.3613 23.514C18.3193 22.6513 20.7973 20.682 22.3307 18.0833L21.856 16.824C21.808 16.6953 21.7087 16.5927 21.5827 16.5393Z" fill="#31373D"/>
</svg>
