<svg width="17" height="24" viewBox="0 0 17 24" fill="none" xmlns="http://www.w3.org/2000/svg">
<path d="M14.4909 11.6894C14.3061 11.5045 14.0901 11.3487 13.8567 11.2284L13.5667 10.2455L7.75938 10.2049L7.53686 10.9957C7.19836 11.0646 6.7823 11.2777 6.52716 11.5161L3.90979 8.65015C3.3176 8.91399 2.903 9.50545 2.903 10.1962V10.8921L0.00366211 13.9117L0.0152593 15.4976L7.252 23.2744C7.252 23.2744 14.8758 12.1931 14.8939 12.2149C14.8019 12.0525 14.5235 11.7053 14.4909 11.6894Z" fill="#EF9645"/>
<path d="M12.7433 10.953H7.97317C7.8224 10.953 7.67526 10.9682 7.53319 10.9972L7.48028 10.7957L5.1079 1.76139C5.1079 1.76139 4.80637 0.342887 6.22414 0.0420811C7.64192 -0.25945 7.94345 1.15832 7.94345 1.15832L10.1883 9.54392C10.5115 9.56132 10.8247 9.58959 11.1342 9.62148L12.628 2.00203C12.628 2.00203 12.7643 0.558887 14.2082 0.694431C15.6513 0.8307 15.5151 2.27384 15.5151 2.27384L14.0183 10.3637L13.8581 11.2292C13.5218 11.0588 13.1463 10.953 12.7433 10.953ZM1.38878 9.50333H1.51055C2.27815 9.50333 2.89933 10.1252 2.89933 10.8928V13.9125C2.89933 14.6801 2.27815 15.302 1.51055 15.302H1.38878C0.621182 15.302 0 14.6801 0 13.9125V10.8928C0 10.1252 0.621182 9.50333 1.38878 9.50333ZM6.40318 11.6488L6.36259 11.6938C6.01902 12.0772 5.79867 12.5716 5.79867 13.1275C5.79867 13.1732 5.80809 13.2167 5.81171 13.2616C5.84361 13.753 6.03496 14.1981 6.33939 14.5474C6.28793 14.641 6.22125 14.7236 6.15166 14.8033C5.88637 15.1056 5.50656 15.302 5.07383 15.302C4.27362 15.302 3.62417 14.6525 3.62417 13.8523V9.50333C3.62417 9.18368 3.73072 8.89085 3.90613 8.65093C4.16997 8.29069 4.59254 8.05367 5.07383 8.05367C5.87405 8.05367 6.5235 8.70312 6.5235 9.50333V11.5169C6.47929 11.5568 6.44449 11.6061 6.40318 11.6488Z" fill="#FFCD4C"/>
<path d="M1.49471 16.0269C2.23694 16.0269 2.89002 15.6456 3.27055 15.0686C3.35971 15.2013 3.46698 15.3194 3.58296 15.4289C4.44189 16.2371 5.7821 16.1856 6.60334 15.3665C6.71351 15.2564 6.82296 15.1455 6.90704 15.0128L6.90487 15.0106C7.05056 15.094 7.24844 15.302 7.97327 15.302H9.81218C9.54399 15.5043 9.299 15.7536 9.06995 16.0269C8.17985 17.0902 7.61086 18.6406 7.61086 20.3759C7.61086 20.5759 7.77322 20.7383 7.97327 20.7383C8.17333 20.7383 8.33569 20.5759 8.33569 20.3759C8.33569 18.529 9.02863 16.9148 10.0586 16.0269C10.5892 15.5695 11.2068 15.302 11.8693 15.302C12.3861 15.3593 12.4832 14.5772 11.9599 14.5772H7.97327C7.17306 14.5772 6.52361 13.9277 6.52361 13.1275C6.52361 12.3273 7.17306 11.6779 7.97327 11.6779H13.7719C14.3938 11.6779 14.9752 12.1099 15.1585 12.7035L15.9464 15.302C16.0211 15.5448 16.2936 16.6582 16.2443 16.8901C16.2443 20.3759 12.8405 24 8.69811 24C3.95987 24 0.11318 20.2084 0.0102539 15.4948L0.0204015 15.5021C0.393691 15.8246 0.872806 16.0269 1.40483 16.0269H1.49471Z" fill="#FFCD4C"/>
</svg>
