<svg width="12" height="14" viewBox="0 0 12 14" fill="none" xmlns="http://www.w3.org/2000/svg">
<path fill-rule="evenodd" clip-rule="evenodd" d="M6.25001 0.334674C8.19668 0.334674 9.78201 1.92001 9.78201 3.86867L9.78194 4.91974C10.9654 5.33161 11.8167 6.45828 11.8167 7.78054V10.6399C11.8167 12.3099 10.4587 13.6679 8.78875 13.6679H3.69475C2.02475 13.6679 0.666748 12.3099 0.666748 10.6399V7.78054C0.666748 6.45853 1.51776 5.33204 2.70089 4.91997L2.70135 3.86867C2.70535 2.90867 3.07668 2.02267 3.74668 1.35867C4.41735 0.694007 5.30268 0.309341 6.25001 0.334674ZM8.78875 5.75254H3.69475C2.57608 5.75254 1.66675 6.66187 1.66675 7.78054V10.6399C1.66675 11.7585 2.57608 12.6679 3.69475 12.6679H8.78875C9.90675 12.6679 10.8167 11.7585 10.8167 10.6399V7.78054C10.8167 6.66187 9.90675 5.75254 8.78875 5.75254ZM6.24161 7.96974C6.51761 7.96974 6.74161 8.19374 6.74161 8.46974V9.95041C6.74161 10.2264 6.51761 10.4504 6.24161 10.4504C5.96561 10.4504 5.74161 10.2264 5.74161 9.95041V8.46974C5.74161 8.19374 5.96561 7.96974 6.24161 7.96974ZM6.24801 1.33467H6.23735C5.56201 1.33467 4.92935 1.59467 4.45135 2.06867C3.97001 2.54467 3.70401 3.18001 3.70135 3.85734L3.70075 4.75216H8.78141L8.78201 3.86867C8.78201 2.47134 7.64535 1.33467 6.24801 1.33467Z" fill="#00A9B7"/>
</svg>
