<svg width="16" height="16" viewBox="0 0 16 16" fill="none" xmlns="http://www.w3.org/2000/svg">
<path fill-rule="evenodd" clip-rule="evenodd" d="M11.1061 1.33331C13.3261 1.33331 15.0001 3.14465 15.0001 5.54665V10.1253C15.0001 11.3546 14.5654 12.4653 13.7754 13.2533C13.0667 13.9593 12.1474 14.3333 11.1167 14.3333H4.54808C3.51941 14.3333 2.60075 13.96 1.89141 13.2533C1.10141 12.4653 0.666748 11.3546 0.666748 10.1253V5.54665C0.666748 3.14465 2.34075 1.33331 4.56075 1.33331H11.1061ZM11.1061 2.33331H4.56075C2.88408 2.33331 1.66675 3.68465 1.66675 5.54665V10.1253C1.66675 11.0873 1.99741 11.9466 2.59741 12.5446C3.11475 13.0613 3.79008 13.3333 4.55008 13.3333H11.1061C11.1074 13.332 11.1127 13.3333 11.1167 13.3333C11.8774 13.3333 12.5521 13.0613 13.0694 12.5446C13.6701 11.9466 14.0001 11.0873 14.0001 10.1253V5.54665C14.0001 3.68465 12.7827 2.33331 11.1061 2.33331ZM12.1567 5.41918C12.3307 5.63318 12.2981 5.94785 12.0841 6.12251L9.12141 8.53051C8.74675 8.82785 8.29875 8.97651 7.85141 8.97651C7.40541 8.97651 6.96075 8.82918 6.58875 8.53451L3.59875 6.12385C3.38341 5.95051 3.35008 5.63518 3.52275 5.42051C3.69675 5.20651 4.01141 5.17251 4.22608 5.34518L7.21341 7.75318C7.58875 8.05051 8.11741 8.05051 8.49541 7.75051L11.4527 5.34651C11.6674 5.17118 11.9821 5.20451 12.1567 5.41918Z" fill="#00A9B7"/>
</svg>
