<svg width="16" height="16" viewBox="0 0 16 16" fill="none" xmlns="http://www.w3.org/2000/svg">
<path d="M8.00004 2.66669C9.3789 2.66669 10.6862 3.14507 11.8244 4.03073C12.9626 4.90992 13.9317 6.19638 14.6277 7.80608C14.6797 7.92891 14.6797 8.07113 14.6277 8.18749C13.2358 11.4069 10.7578 13.3334 8.00004 13.3334H7.99354C5.24232 13.3334 2.76427 11.4069 1.3724 8.18749C1.32037 8.07113 1.32037 7.92891 1.3724 7.80608C2.76427 4.58669 5.24232 2.66669 7.99354 2.66669H8.00004ZM8.00004 5.41416C6.56264 5.41416 5.39841 6.57133 5.39841 8.00002C5.39841 9.42224 6.56264 10.5794 8.00004 10.5794C9.43093 10.5794 10.5952 9.42224 10.5952 8.00002C10.5952 6.57133 9.43093 5.41416 8.00004 5.41416ZM8.00082 6.38244C8.89188 6.38244 9.62033 7.10648 9.62033 7.9986C9.62033 8.88425 8.89188 9.60829 8.00082 9.60829C7.10326 9.60829 6.3748 8.88425 6.3748 7.9986C6.3748 7.8887 6.38781 7.78526 6.40733 7.68183H6.43985C7.1618 7.68183 7.74716 7.11294 7.77318 6.40183C7.84472 6.3889 7.92277 6.38244 8.00082 6.38244Z" fill="#00A9B7"/>
</svg>
